<svg width="66" height="66" viewBox="0 0 66 66" fill="none" xmlns="http://www.w3.org/2000/svg">
<path fill-rule="evenodd" clip-rule="evenodd" d="M32.8252 0.00182111C50.9546 0.00182111 65.651 14.6982 65.651 32.827C65.651 50.9564 50.9546 65.6528 32.8252 65.6528C14.6963 65.6528 0 50.9564 0 32.827C0 19.6646 7.74851 8.31366 18.9316 3.08101C22.6021 2.47731 26.1299 2.17926 29.1793 2.17926C43.7163 2.17926 55.5013 13.964 55.5013 28.5007C55.5013 32.4449 54.6327 36.1854 53.0783 39.5439C52.5396 33.7321 47.6508 29.1814 41.6985 29.1814C35.386 29.1814 30.2686 34.2988 30.2686 40.6113C30.2686 46.6914 35.016 51.6636 41.0074 52.02L41.0062 52.0206L41.0815 52.0248L41.0924 52.0254L41.1033 52.0257L41.1103 52.0263H41.114L41.1246 52.0269L41.1355 52.0276L41.1464 52.0279L41.3732 52.0364L41.3841 52.0367L41.395 52.037L41.4038 52.0373H41.4056L41.4166 52.0376C41.5031 52.0397 41.5902 52.0406 41.677 52.0409H41.6882H41.6991C41.7884 52.0409 41.8776 52.0403 41.9659 52.0379L41.9945 52.0373H41.9975C42.0901 52.0351 42.182 52.0312 42.2743 52.0266L42.284 52.026H42.2877L42.3053 52.0248L42.5472 52.0097L42.5787 52.0075L42.5821 52.0072C42.6756 52.0002 42.7684 51.9917 42.861 51.9826L42.8677 51.982L42.9126 51.9772L43.1545 51.9489L43.1718 51.9468C43.258 51.9356 43.3436 51.9238 43.4292 51.9107L43.4398 51.9092L43.4805 51.9028L43.6857 51.8685L43.7537 51.8564L43.8878 51.8312L43.9385 51.8212L43.9494 51.819L44.0368 51.8014L44.0396 51.8008L44.09 51.7899L44.2375 51.7574L44.2906 51.7453L44.3404 51.7334L44.3904 51.7213L44.5079 51.6922L44.5905 51.6712L44.802 51.6139L44.8351 51.6045L44.8843 51.5902L44.9817 51.5614L44.9829 51.5604C48.7738 50.4253 51.7374 47.3758 52.7514 43.5339C55.5268 39.1927 57.1355 34.0344 57.1355 28.4991C57.1355 13.0604 44.6193 0.544511 29.1802 0.544511C28.3091 0.544511 27.4028 0.5694 26.4704 0.617356C28.5268 0.213677 30.6511 0 32.8261 0L32.8252 0.00182111Z" fill="#4984E8"/>
</svg>
