<?xml version="1.0" encoding="UTF-8"?>
<!DOCTYPE svg PUBLIC "-//W3C//DTD SVG 1.1//EN" "http://www.w3.org/Graphics/SVG/1.1/DTD/svg11.dtd">
<!-- Creator: CorelDRAW 2020 (64 Bit Versão de avaliação) -->
<svg xmlns="http://www.w3.org/2000/svg" xml:space="preserve" width="17.3701mm" height="17.3706mm" version="1.1" style="shape-rendering:geometricPrecision; text-rendering:geometricPrecision; image-rendering:optimizeQuality; fill-rule:evenodd; clip-rule:evenodd"
viewBox="0 0 66.74 66.74"
 xmlns:xlink="http://www.w3.org/1999/xlink"
 xmlns:xodm="http://www.corel.com/coreldraw/odm/2003">
 <defs>
  <style type="text/css">
   <![CDATA[
    .fil0 {fill:#4984E8}
   ]]>
  </style>
 </defs>
 <g id="Camada_x0020_1">
  <metadata id="CorelCorpID_0Corel-Layer"/>
  <path class="fil0" d="M33.37 0c18.43,0 33.37,14.94 33.37,33.37 0,18.43 -14.94,33.37 -33.37,33.37 -18.43,0 -33.37,-14.94 -33.37,-33.37 0,-13.38 7.88,-24.92 19.25,-30.24 3.73,-0.61 7.32,-0.92 10.42,-0.92 14.78,0 26.76,11.98 26.76,26.76 0,4.01 -0.88,7.81 -2.46,11.23 -0.55,-5.91 -5.52,-10.53 -11.57,-10.53 -6.42,0 -11.62,5.2 -11.62,11.62 0,6.18 4.83,11.24 10.92,11.6l-0 0 0.08 0 0.01 0 0.01 0 0.01 0 0 0 0.01 0 0.01 0 0.01 0 0.23 0.01 0.01 0 0.01 0 0.01 0 0 0 0.01 0c0.09,0 0.18,0 0.26,0l0.01 0 0.01 0c0.09,0 0.18,-0 0.27,-0l0.03 -0 0 0c0.09,-0 0.19,-0.01 0.28,-0.01l0.01 -0 0 0 0.02 -0 0.25 -0.02 0.03 -0 0 -0c0.09,-0.01 0.19,-0.02 0.28,-0.02l0.01 -0 0.05 -0 0.25 -0.03 0.02 -0c0.09,-0.01 0.17,-0.02 0.26,-0.04l0.01 -0 0.04 -0.01 0.21 -0.03 0.07 -0.01 0.14 -0.03 0.05 -0.01 0.01 -0 0.09 -0.02 0 -0 0.05 -0.01 0.15 -0.03 0.05 -0.01 0.05 -0.01 0.05 -0.01 0.12 -0.03 0.08 -0.02 0.21 -0.06 0.03 -0.01 0.05 -0.01 0.1 -0.03 0 -0c3.85,-1.15 6.87,-4.25 7.9,-8.16 2.82,-4.41 4.46,-9.66 4.46,-15.28 0,-15.7 -12.72,-28.42 -28.42,-28.42 -0.89,0 -1.81,0.03 -2.75,0.07 2.09,-0.41 4.25,-0.63 6.46,-0.63l-0 0z"/>
 </g>
</svg>
