<svg width="282" height="66" viewBox="0 0 282 66" fill="none" xmlns="http://www.w3.org/2000/svg">
<path fill-rule="evenodd" clip-rule="evenodd" d="M32.8252 0.00182111C50.9546 0.00182111 65.651 14.6982 65.651 32.827C65.651 50.9564 50.9546 65.6528 32.8252 65.6528C14.6963 65.6528 0 50.9564 0 32.827C0 19.6646 7.74851 8.31366 18.9316 3.08101C22.6021 2.47731 26.1299 2.17926 29.1793 2.17926C43.7163 2.17926 55.5013 13.964 55.5013 28.5007C55.5013 32.4449 54.6327 36.1854 53.0783 39.5439C52.5396 33.7321 47.6508 29.1814 41.6985 29.1814C35.386 29.1814 30.2686 34.2988 30.2686 40.6113C30.2686 46.6914 35.016 51.6636 41.0074 52.02L41.0062 52.0206L41.0815 52.0248L41.0924 52.0254L41.1033 52.0257L41.1103 52.0263H41.114L41.1246 52.0269L41.1355 52.0276L41.1464 52.0279L41.3732 52.0364L41.3841 52.0367L41.395 52.037L41.4038 52.0373H41.4056L41.4166 52.0376C41.5031 52.0397 41.5902 52.0406 41.677 52.0409H41.6882H41.6991C41.7884 52.0409 41.8776 52.0403 41.9659 52.0379L41.9945 52.0373H41.9975C42.0901 52.0351 42.182 52.0312 42.2743 52.0266L42.284 52.026H42.2877L42.3053 52.0248L42.5472 52.0097L42.5787 52.0075L42.5821 52.0072C42.6756 52.0002 42.7684 51.9917 42.861 51.9826L42.8677 51.982L42.9126 51.9772L43.1545 51.9489L43.1718 51.9468C43.258 51.9356 43.3436 51.9238 43.4292 51.9107L43.4398 51.9092L43.4805 51.9028L43.6857 51.8685L43.7537 51.8564L43.8878 51.8312L43.9385 51.8212L43.9494 51.819L44.0368 51.8014L44.0396 51.8008L44.09 51.7899L44.2375 51.7574L44.2906 51.7453L44.3404 51.7334L44.3904 51.7213L44.5079 51.6922L44.5905 51.6712L44.802 51.6139L44.8351 51.6045L44.8843 51.5902L44.9817 51.5614L44.9829 51.5604C48.7738 50.4253 51.7374 47.3758 52.7514 43.5339C55.5268 39.1927 57.1355 34.0344 57.1355 28.4991C57.1355 13.0604 44.6193 0.544511 29.1802 0.544511C28.3091 0.544511 27.4028 0.5694 26.4704 0.617356C28.5268 0.213677 30.6511 0 32.8261 0L32.8252 0.00182111Z" fill="#4984E8"/>
<path d="M280.442 42.2826H77.9006V43.8406H280.442V42.2826Z" fill="#4984E8"/>
<path d="M87.2206 30.6104H96.1806V35.8904H80.3806V7.81038H87.2206V30.6104ZM100.683 24.6904C100.683 22.397 101.11 20.3837 101.963 18.6504C102.843 16.917 104.03 15.5837 105.523 14.6504C107.016 13.717 108.683 13.2504 110.523 13.2504C112.096 13.2504 113.47 13.5704 114.643 14.2104C115.843 14.8504 116.763 15.6904 117.403 16.7304V13.5704H124.243V35.8904H117.403V32.7304C116.736 33.7704 115.803 34.6104 114.603 35.2504C113.43 35.8904 112.056 36.2104 110.483 36.2104C108.67 36.2104 107.016 35.7437 105.523 34.8104C104.03 33.8504 102.843 32.5037 101.963 30.7704C101.11 29.0104 100.683 26.9837 100.683 24.6904ZM117.403 24.7304C117.403 23.0237 116.923 21.677 115.963 20.6904C115.03 19.7037 113.883 19.2104 112.523 19.2104C111.163 19.2104 110.003 19.7037 109.043 20.6904C108.11 21.6504 107.643 22.9837 107.643 24.6904C107.643 26.397 108.11 27.757 109.043 28.7704C110.003 29.757 111.163 30.2504 112.523 30.2504C113.883 30.2504 115.03 29.757 115.963 28.7704C116.923 27.7837 117.403 26.437 117.403 24.7304ZM140.872 36.2104C138.925 36.2104 137.192 35.877 135.672 35.2104C134.152 34.5437 132.952 33.637 132.072 32.4904C131.192 31.317 130.698 30.0104 130.592 28.5704H137.352C137.432 29.3437 137.792 29.9704 138.432 30.4504C139.072 30.9304 139.858 31.1704 140.792 31.1704C141.645 31.1704 142.298 31.0104 142.752 30.6904C143.232 30.3437 143.472 29.9037 143.472 29.3704C143.472 28.7304 143.138 28.2637 142.472 27.9704C141.805 27.6504 140.725 27.3037 139.232 26.9304C137.632 26.557 136.298 26.1704 135.232 25.7704C134.165 25.3437 133.245 24.6904 132.472 23.8104C131.698 22.9037 131.312 21.6904 131.312 20.1704C131.312 18.8904 131.658 17.7304 132.352 16.6904C133.072 15.6237 134.112 14.7837 135.472 14.1704C136.858 13.557 138.498 13.2504 140.392 13.2504C143.192 13.2504 145.392 13.9437 146.992 15.3304C148.618 16.717 149.552 18.557 149.792 20.8504H143.472C143.365 20.077 143.018 19.4637 142.432 19.0104C141.872 18.557 141.125 18.3304 140.192 18.3304C139.392 18.3304 138.778 18.4904 138.352 18.8104C137.925 19.1037 137.712 19.517 137.712 20.0504C137.712 20.6904 138.045 21.1704 138.712 21.4904C139.405 21.8104 140.472 22.1304 141.912 22.4504C143.565 22.877 144.912 23.3037 145.952 23.7304C146.992 24.1304 147.898 24.797 148.672 25.7304C149.472 26.637 149.885 27.8637 149.912 29.4104C149.912 30.717 149.538 31.8904 148.792 32.9304C148.072 33.9437 147.018 34.7437 145.632 35.3304C144.272 35.917 142.685 36.2104 140.872 36.2104ZM169.136 30.0904V35.8904H165.656C163.176 35.8904 161.243 35.2904 159.856 34.0904C158.47 32.8637 157.776 30.877 157.776 28.1304V19.2504H155.056V13.5704H157.776V8.13038H164.616V13.5704H169.096V19.2504H164.616V28.2104C164.616 28.877 164.776 29.357 165.096 29.6504C165.416 29.9437 165.95 30.0904 166.696 30.0904H169.136ZM196.063 36.1704C194.223 36.1704 192.569 35.8504 191.103 35.2104C189.663 34.5437 188.529 33.637 187.703 32.4904C186.876 31.317 186.449 29.9704 186.423 28.4504H190.303C190.436 29.757 190.969 30.8637 191.903 31.7704C192.863 32.6504 194.249 33.0904 196.063 33.0904C197.796 33.0904 199.156 32.6637 200.143 31.8104C201.156 30.9304 201.663 29.8104 201.663 28.4504C201.663 27.3837 201.369 26.517 200.783 25.8504C200.196 25.1837 199.463 24.677 198.583 24.3304C197.703 23.9837 196.516 23.6104 195.023 23.2104C193.183 22.7304 191.703 22.2504 190.583 21.7704C189.489 21.2904 188.543 20.5437 187.743 19.5304C186.969 18.4904 186.583 17.1037 186.583 15.3704C186.583 13.8504 186.969 12.5037 187.743 11.3304C188.516 10.157 189.596 9.25038 190.983 8.61038C192.396 7.97038 194.009 7.65038 195.823 7.65038C198.436 7.65038 200.569 8.30371 202.223 9.61038C203.903 10.917 204.849 12.6504 205.063 14.8104H201.063C200.929 13.7437 200.369 12.8104 199.383 12.0104C198.396 11.1837 197.089 10.7704 195.463 10.7704C193.943 10.7704 192.703 11.1704 191.743 11.9704C190.783 12.7437 190.303 13.837 190.303 15.2504C190.303 16.2637 190.583 17.0904 191.143 17.7304C191.729 18.3704 192.436 18.8637 193.263 19.2104C194.116 19.5304 195.303 19.9037 196.823 20.3304C198.663 20.837 200.143 21.3437 201.263 21.8504C202.383 22.3304 203.343 23.0904 204.143 24.1304C204.943 25.1437 205.343 26.5304 205.343 28.2904C205.343 29.6504 204.983 30.9304 204.263 32.1304C203.543 33.3304 202.476 34.3037 201.063 35.0504C199.649 35.797 197.983 36.1704 196.063 36.1704ZM217.739 16.9704V29.8904C217.739 30.957 217.966 31.717 218.419 32.1704C218.873 32.597 219.659 32.8104 220.779 32.8104H223.459V35.8904H220.179C218.153 35.8904 216.633 35.4237 215.619 34.4904C214.606 33.557 214.099 32.0237 214.099 29.8904V16.9704H211.259V13.9704H214.099V8.45038H217.739V13.9704H223.459V16.9704H217.739ZM250.47 24.0904C250.47 24.7837 250.43 25.517 250.35 26.2904H232.83C232.963 28.4504 233.696 30.1437 235.03 31.3704C236.39 32.5704 238.03 33.1704 239.95 33.1704C241.523 33.1704 242.83 32.8104 243.87 32.0904C244.936 31.3437 245.683 30.357 246.11 29.1304H250.03C249.443 31.237 248.27 32.957 246.51 34.2904C244.75 35.597 242.563 36.2504 239.95 36.2504C237.87 36.2504 236.003 35.7837 234.35 34.8504C232.723 33.917 231.443 32.597 230.51 30.8904C229.576 29.157 229.11 27.157 229.11 24.8904C229.11 22.6237 229.563 20.637 230.47 18.9304C231.376 17.2237 232.643 15.917 234.27 15.0104C235.923 14.077 237.816 13.6104 239.95 13.6104C242.03 13.6104 243.87 14.0637 245.47 14.9704C247.07 15.877 248.296 17.1304 249.15 18.7304C250.03 20.3037 250.47 22.0904 250.47 24.0904ZM246.71 23.3304C246.71 21.9437 246.403 20.757 245.79 19.7704C245.176 18.757 244.336 17.997 243.27 17.4904C242.23 16.957 241.07 16.6904 239.79 16.6904C237.95 16.6904 236.376 17.277 235.07 18.4504C233.79 19.6237 233.056 21.2504 232.87 23.3304H246.71ZM261.514 18.0104C262.234 16.757 263.301 15.717 264.714 14.8904C266.154 14.037 267.821 13.6104 269.714 13.6104C271.661 13.6104 273.421 14.077 274.994 15.0104C276.594 15.9437 277.848 17.2637 278.754 18.9704C279.661 20.6504 280.114 22.6104 280.114 24.8504C280.114 27.0637 279.661 29.037 278.754 30.7704C277.848 32.5037 276.594 33.8504 274.994 34.8104C273.421 35.7704 271.661 36.2504 269.714 36.2504C267.848 36.2504 266.194 35.837 264.754 35.0104C263.341 34.157 262.261 33.1037 261.514 31.8504V46.2904H257.874V13.9704H261.514V18.0104ZM276.394 24.8504C276.394 23.197 276.061 21.757 275.394 20.5304C274.728 19.3037 273.821 18.3704 272.674 17.7304C271.554 17.0904 270.314 16.7704 268.954 16.7704C267.621 16.7704 266.381 17.1037 265.234 17.7704C264.114 18.4104 263.208 19.357 262.514 20.6104C261.848 21.837 261.514 23.2637 261.514 24.8904C261.514 26.5437 261.848 27.997 262.514 29.2504C263.208 30.477 264.114 31.4237 265.234 32.0904C266.381 32.7304 267.621 33.0504 268.954 33.0504C270.314 33.0504 271.554 32.7304 272.674 32.0904C273.821 31.4237 274.728 30.477 275.394 29.2504C276.061 27.997 276.394 26.5304 276.394 24.8504Z" fill="#4984E8"/>
<path d="M78.2966 54.2907C78.2966 53.4587 78.4766 52.7187 78.8366 52.0707C79.1966 51.4147 79.6966 50.9067 80.3366 50.5467C80.9846 50.1787 81.7166 49.9947 82.5326 49.9947C83.5326 49.9947 84.3886 50.2587 85.1006 50.7867C85.8126 51.3147 86.2886 52.0347 86.5286 52.9467H84.2726C84.1046 52.5947 83.8646 52.3267 83.5526 52.1427C83.2486 51.9587 82.9006 51.8667 82.5086 51.8667C81.8766 51.8667 81.3646 52.0867 80.9726 52.5267C80.5806 52.9667 80.3846 53.5547 80.3846 54.2907C80.3846 55.0267 80.5806 55.6147 80.9726 56.0547C81.3646 56.4947 81.8766 56.7147 82.5086 56.7147C82.9006 56.7147 83.2486 56.6227 83.5526 56.4387C83.8646 56.2547 84.1046 55.9867 84.2726 55.6347H86.5286C86.2886 56.5467 85.8126 57.2667 85.1006 57.7947C84.3886 58.3147 83.5326 58.5747 82.5326 58.5747C81.7166 58.5747 80.9846 58.3947 80.3366 58.0347C79.6966 57.6667 79.1966 57.1587 78.8366 56.5107C78.4766 55.8627 78.2966 55.1227 78.2966 54.2907ZM89.8013 50.0907V55.1307C89.8013 55.6347 89.9253 56.0227 90.1733 56.2947C90.4213 56.5667 90.7853 56.7027 91.2653 56.7027C91.7453 56.7027 92.1133 56.5667 92.3693 56.2947C92.6253 56.0227 92.7533 55.6347 92.7533 55.1307V50.0907H94.8053V55.1187C94.8053 55.8707 94.6453 56.5067 94.3253 57.0267C94.0053 57.5467 93.5733 57.9387 93.0293 58.2027C92.4933 58.4667 91.8933 58.5987 91.2293 58.5987C90.5653 58.5987 89.9693 58.4707 89.4413 58.2147C88.9213 57.9507 88.5093 57.5587 88.2053 57.0387C87.9013 56.5107 87.7493 55.8707 87.7493 55.1187V50.0907H89.8013ZM98.2982 50.0907V58.5147H96.2462V50.0907H98.2982ZM102.941 50.0907C103.829 50.0907 104.605 50.2667 105.269 50.6187C105.933 50.9707 106.445 51.4667 106.805 52.1067C107.173 52.7387 107.357 53.4707 107.357 54.3027C107.357 55.1267 107.173 55.8587 106.805 56.4987C106.445 57.1387 105.929 57.6347 105.257 57.9867C104.593 58.3387 103.821 58.5147 102.941 58.5147H99.7853V50.0907H102.941ZM102.809 56.7387C103.585 56.7387 104.189 56.5267 104.621 56.1027C105.053 55.6787 105.269 55.0787 105.269 54.3027C105.269 53.5267 105.053 52.9227 104.621 52.4907C104.189 52.0587 103.585 51.8427 102.809 51.8427H101.837V56.7387H102.809ZM113.748 57.0267H110.604L110.1 58.5147H107.952L111 50.0907H113.376L116.424 58.5147H114.252L113.748 57.0267ZM113.22 55.4427L112.176 52.3587L111.144 55.4427H113.22ZM120.508 50.0907C121.396 50.0907 122.172 50.2667 122.836 50.6187C123.5 50.9707 124.012 51.4667 124.372 52.1067C124.74 52.7387 124.924 53.4707 124.924 54.3027C124.924 55.1267 124.74 55.8587 124.372 56.4987C124.012 57.1387 123.496 57.6347 122.824 57.9867C122.16 58.3387 121.388 58.5147 120.508 58.5147H117.352V50.0907H120.508ZM120.376 56.7387C121.152 56.7387 121.756 56.5267 122.188 56.1027C122.62 55.6787 122.836 55.0787 122.836 54.3027C122.836 53.5267 122.62 52.9227 122.188 52.4907C121.756 52.0587 121.152 51.8427 120.376 51.8427H119.404V56.7387H120.376ZM130.054 58.5987C129.262 58.5987 128.534 58.4147 127.87 58.0467C127.214 57.6787 126.69 57.1667 126.298 56.5107C125.914 55.8467 125.722 55.1027 125.722 54.2787C125.722 53.4547 125.914 52.7147 126.298 52.0587C126.69 51.4027 127.214 50.8907 127.87 50.5227C128.534 50.1547 129.262 49.9707 130.054 49.9707C130.846 49.9707 131.57 50.1547 132.226 50.5227C132.89 50.8907 133.41 51.4027 133.786 52.0587C134.17 52.7147 134.362 53.4547 134.362 54.2787C134.362 55.1027 134.17 55.8467 133.786 56.5107C133.402 57.1667 132.882 57.6787 132.226 58.0467C131.57 58.4147 130.846 58.5987 130.054 58.5987ZM130.054 56.7267C130.726 56.7267 131.262 56.5027 131.662 56.0547C132.07 55.6067 132.274 55.0147 132.274 54.2787C132.274 53.5347 132.07 52.9427 131.662 52.5027C131.262 52.0547 130.726 51.8307 130.054 51.8307C129.374 51.8307 128.83 52.0507 128.422 52.4907C128.022 52.9307 127.822 53.5267 127.822 54.2787C127.822 55.0227 128.022 55.6187 128.422 56.0667C128.83 56.5067 129.374 56.7267 130.054 56.7267ZM138.552 58.5987C137.936 58.5987 137.384 58.4987 136.896 58.2987C136.408 58.0987 136.016 57.8027 135.72 57.4107C135.432 57.0187 135.28 56.5467 135.264 55.9947H137.448C137.48 56.3067 137.588 56.5467 137.772 56.7147C137.956 56.8747 138.196 56.9547 138.492 56.9547C138.796 56.9547 139.036 56.8867 139.212 56.7507C139.388 56.6067 139.476 56.4107 139.476 56.1627C139.476 55.9547 139.404 55.7827 139.26 55.6467C139.124 55.5107 138.952 55.3987 138.744 55.3107C138.544 55.2227 138.256 55.1227 137.88 55.0107C137.336 54.8427 136.892 54.6747 136.548 54.5067C136.204 54.3387 135.908 54.0907 135.66 53.7627C135.412 53.4347 135.288 53.0067 135.288 52.4787C135.288 51.6947 135.572 51.0827 136.14 50.6427C136.708 50.1947 137.448 49.9707 138.36 49.9707C139.288 49.9707 140.036 50.1947 140.604 50.6427C141.172 51.0827 141.476 51.6987 141.516 52.4907H139.296C139.28 52.2187 139.18 52.0067 138.996 51.8547C138.812 51.6947 138.576 51.6147 138.288 51.6147C138.04 51.6147 137.84 51.6827 137.688 51.8187C137.536 51.9467 137.46 52.1347 137.46 52.3827C137.46 52.6547 137.588 52.8667 137.844 53.0187C138.1 53.1707 138.5 53.3347 139.044 53.5107C139.588 53.6947 140.028 53.8707 140.364 54.0387C140.708 54.2067 141.004 54.4507 141.252 54.7707C141.5 55.0907 141.624 55.5027 141.624 56.0067C141.624 56.4867 141.5 56.9227 141.252 57.3147C141.012 57.7067 140.66 58.0187 140.196 58.2507C139.732 58.4827 139.184 58.5987 138.552 58.5987ZM151.85 52.8027C151.85 53.2907 151.738 53.7387 151.514 54.1467C151.29 54.5467 150.946 54.8707 150.482 55.1187C150.018 55.3667 149.442 55.4907 148.754 55.4907H147.482V58.5147H145.43V50.0907H148.754C149.426 50.0907 149.994 50.2067 150.458 50.4387C150.922 50.6707 151.27 50.9907 151.502 51.3987C151.734 51.8067 151.85 52.2747 151.85 52.8027ZM148.598 53.8587C148.99 53.8587 149.282 53.7667 149.474 53.5827C149.666 53.3987 149.762 53.1387 149.762 52.8027C149.762 52.4667 149.666 52.2067 149.474 52.0227C149.282 51.8387 148.99 51.7467 148.598 51.7467H147.482V53.8587H148.598ZM158.162 57.0267H155.018L154.514 58.5147H152.366L155.414 50.0907H157.79L160.838 58.5147H158.666L158.162 57.0267ZM157.634 55.4427L156.59 52.3587L155.558 55.4427H157.634ZM166.062 58.5147L164.31 55.3347H163.818V58.5147H161.766V50.0907H165.21C165.874 50.0907 166.438 50.2067 166.902 50.4387C167.374 50.6707 167.726 50.9907 167.958 51.3987C168.19 51.7987 168.306 52.2467 168.306 52.7427C168.306 53.3027 168.146 53.8027 167.826 54.2427C167.514 54.6827 167.05 54.9947 166.434 55.1787L168.378 58.5147H166.062ZM163.818 53.8827H165.09C165.466 53.8827 165.746 53.7907 165.93 53.6067C166.122 53.4227 166.218 53.1627 166.218 52.8267C166.218 52.5067 166.122 52.2547 165.93 52.0707C165.746 51.8867 165.466 51.7947 165.09 51.7947H163.818V53.8827ZM174.838 57.0267H171.694L171.19 58.5147H169.042L172.09 50.0907H174.466L177.514 58.5147H175.342L174.838 57.0267ZM174.31 55.4427L173.266 52.3587L172.234 55.4427H174.31ZM186.228 57.0267H183.084L182.58 58.5147H180.432L183.48 50.0907H185.856L188.904 58.5147H186.732L186.228 57.0267ZM185.7 55.4427L184.656 52.3587L183.624 55.4427H185.7ZM201.915 50.0907V58.5147H199.863V53.4627L197.979 58.5147H196.323L194.427 53.4507V58.5147H192.375V50.0907H194.799L197.163 55.9227L199.503 50.0907H201.915ZM205.443 51.7347V53.4387H208.191V55.0227H205.443V56.8707H208.551V58.5147H203.391V50.0907H208.551V51.7347H205.443ZM211.935 56.9307H214.623V58.5147H209.883V50.0907H211.935V56.9307ZM222.898 50.0907V58.5147H220.846V55.0467H217.654V58.5147H215.602V50.0907H217.654V53.3907H220.846V50.0907H222.898ZM228.363 58.5987C227.571 58.5987 226.843 58.4147 226.179 58.0467C225.523 57.6787 224.999 57.1667 224.607 56.5107C224.223 55.8467 224.031 55.1027 224.031 54.2787C224.031 53.4547 224.223 52.7147 224.607 52.0587C224.999 51.4027 225.523 50.8907 226.179 50.5227C226.843 50.1547 227.571 49.9707 228.363 49.9707C229.155 49.9707 229.879 50.1547 230.535 50.5227C231.199 50.8907 231.719 51.4027 232.095 52.0587C232.479 52.7147 232.671 53.4547 232.671 54.2787C232.671 55.1027 232.479 55.8467 232.095 56.5107C231.711 57.1667 231.191 57.6787 230.535 58.0467C229.879 58.4147 229.155 58.5987 228.363 58.5987ZM228.363 56.7267C229.035 56.7267 229.571 56.5027 229.971 56.0547C230.379 55.6067 230.583 55.0147 230.583 54.2787C230.583 53.5347 230.379 52.9427 229.971 52.5027C229.571 52.0547 229.035 51.8307 228.363 51.8307C227.683 51.8307 227.139 52.0507 226.731 52.4907C226.331 52.9307 226.131 53.5267 226.131 54.2787C226.131 55.0227 226.331 55.6187 226.731 56.0667C227.139 56.5067 227.683 56.7267 228.363 56.7267ZM238.109 58.5147L236.357 55.3347H235.865V58.5147H233.813V50.0907H237.257C237.921 50.0907 238.485 50.2067 238.949 50.4387C239.421 50.6707 239.773 50.9907 240.005 51.3987C240.237 51.7987 240.353 52.2467 240.353 52.7427C240.353 53.3027 240.193 53.8027 239.873 54.2427C239.561 54.6827 239.097 54.9947 238.481 55.1787L240.425 58.5147H238.109ZM235.865 53.8827H237.137C237.513 53.8827 237.793 53.7907 237.977 53.6067C238.169 53.4227 238.265 53.1627 238.265 52.8267C238.265 52.5067 238.169 52.2547 237.977 52.0707C237.793 51.8867 237.513 51.7947 237.137 51.7947H235.865V53.8827ZM246.236 50.0907V58.5147H244.184V50.0907H246.236ZM250.879 50.0907C251.767 50.0907 252.543 50.2667 253.207 50.6187C253.871 50.9707 254.383 51.4667 254.743 52.1067C255.111 52.7387 255.295 53.4707 255.295 54.3027C255.295 55.1267 255.111 55.8587 254.743 56.4987C254.383 57.1387 253.867 57.6347 253.195 57.9867C252.531 58.3387 251.759 58.5147 250.879 58.5147H247.723V50.0907H250.879ZM250.747 56.7387C251.523 56.7387 252.127 56.5267 252.559 56.1027C252.991 55.6787 253.207 55.0787 253.207 54.3027C253.207 53.5267 252.991 52.9227 252.559 52.4907C252.127 52.0587 251.523 51.8427 250.747 51.8427H249.775V56.7387H250.747ZM261.686 57.0267H258.542L258.038 58.5147H255.89L258.938 50.0907H261.314L264.362 58.5147H262.19L261.686 57.0267ZM261.158 55.4427L260.114 52.3587L259.082 55.4427H261.158ZM268.445 50.0907C269.333 50.0907 270.109 50.2667 270.773 50.6187C271.437 50.9707 271.949 51.4667 272.309 52.1067C272.677 52.7387 272.861 53.4707 272.861 54.3027C272.861 55.1267 272.677 55.8587 272.309 56.4987C271.949 57.1387 271.433 57.6347 270.761 57.9867C270.097 58.3387 269.325 58.5147 268.445 58.5147H265.289V50.0907H268.445ZM268.313 56.7387C269.089 56.7387 269.693 56.5267 270.125 56.1027C270.557 55.6787 270.773 55.0787 270.773 54.3027C270.773 53.5267 270.557 52.9227 270.125 52.4907C269.693 52.0587 269.089 51.8427 268.313 51.8427H267.341V56.7387H268.313ZM276.06 51.7347V53.4387H278.808V55.0227H276.06V56.8707H279.168V58.5147H274.008V50.0907H279.168V51.7347H276.06Z" fill="#4984E8"/>
</svg>
