<svg width="202" height="10" viewBox="0 0 202 10" fill="none" xmlns="http://www.w3.org/2000/svg">
<path d="M0.296513 5.29068C0.296513 4.45868 0.476513 3.71868 0.836513 3.07068C1.19651 2.41468 1.69651 1.90668 2.33651 1.54668C2.98451 1.17868 3.71651 0.994678 4.53251 0.994678C5.53251 0.994678 6.38851 1.25868 7.10051 1.78668C7.81251 2.31468 8.28851 3.03468 8.52851 3.94668H6.27251C6.10451 3.59468 5.86451 3.32668 5.55251 3.14268C5.24851 2.95868 4.90051 2.86668 4.50851 2.86668C3.87651 2.86668 3.36451 3.08668 2.97251 3.52668C2.58051 3.96668 2.38451 4.55468 2.38451 5.29068C2.38451 6.02668 2.58051 6.61468 2.97251 7.05468C3.36451 7.49468 3.87651 7.71468 4.50851 7.71468C4.90051 7.71468 5.24851 7.62268 5.55251 7.43868C5.86451 7.25468 6.10451 6.98668 6.27251 6.63468H8.52851C8.28851 7.54668 7.81251 8.26668 7.10051 8.79468C6.38851 9.31468 5.53251 9.57468 4.53251 9.57468C3.71651 9.57468 2.98451 9.39468 2.33651 9.03468C1.69651 8.66668 1.19651 8.15868 0.836513 7.51068C0.476513 6.86268 0.296513 6.12268 0.296513 5.29068ZM11.8011 1.09068V6.13068C11.8011 6.63468 11.9251 7.02268 12.1731 7.29468C12.4211 7.56668 12.7851 7.70268 13.2651 7.70268C13.7451 7.70268 14.1131 7.56668 14.3691 7.29468C14.6251 7.02268 14.7531 6.63468 14.7531 6.13068V1.09068H16.8051V6.11868C16.8051 6.87068 16.6451 7.50668 16.3251 8.02668C16.0051 8.54668 15.5731 8.93868 15.0291 9.20268C14.4931 9.46668 13.8931 9.59868 13.2291 9.59868C12.5651 9.59868 11.9691 9.47068 11.4411 9.21468C10.9211 8.95068 10.5091 8.55868 10.2051 8.03868C9.90114 7.51068 9.74914 6.87068 9.74914 6.11868V1.09068H11.8011ZM20.2981 1.09068V9.51468H18.2461V1.09068H20.2981ZM24.9411 1.09068C25.8291 1.09068 26.6051 1.26668 27.2691 1.61868C27.9331 1.97068 28.4451 2.46668 28.8051 3.10668C29.1731 3.73868 29.3571 4.47068 29.3571 5.30268C29.3571 6.12668 29.1731 6.85868 28.8051 7.49868C28.4451 8.13868 27.9291 8.63468 27.2571 8.98668C26.5931 9.33868 25.8211 9.51468 24.9411 9.51468H21.7851V1.09068H24.9411ZM24.8091 7.73868C25.5851 7.73868 26.1891 7.52668 26.6211 7.10268C27.0531 6.67868 27.2691 6.07868 27.2691 5.30268C27.2691 4.52668 27.0531 3.92268 26.6211 3.49068C26.1891 3.05868 25.5851 2.84268 24.8091 2.84268H23.8371V7.73868H24.8091ZM35.7479 8.02668H32.6039L32.0999 9.51468H29.9519L32.9999 1.09068H35.3759L38.4239 9.51468H36.2519L35.7479 8.02668ZM35.2199 6.44268L34.1759 3.35868L33.1439 6.44268H35.2199ZM42.5075 1.09068C43.3955 1.09068 44.1715 1.26668 44.8355 1.61868C45.4995 1.97068 46.0115 2.46668 46.3715 3.10668C46.7395 3.73868 46.9235 4.47068 46.9235 5.30268C46.9235 6.12668 46.7395 6.85868 46.3715 7.49868C46.0115 8.13868 45.4955 8.63468 44.8235 8.98668C44.1595 9.33868 43.3875 9.51468 42.5075 9.51468H39.3515V1.09068H42.5075ZM42.3755 7.73868C43.1515 7.73868 43.7555 7.52668 44.1875 7.10268C44.6195 6.67868 44.8355 6.07868 44.8355 5.30268C44.8355 4.52668 44.6195 3.92268 44.1875 3.49068C43.7555 3.05868 43.1515 2.84268 42.3755 2.84268H41.4035V7.73868H42.3755ZM52.0543 9.59868C51.2623 9.59868 50.5343 9.41468 49.8703 9.04668C49.2143 8.67868 48.6903 8.16668 48.2983 7.51068C47.9143 6.84668 47.7223 6.10268 47.7223 5.27868C47.7223 4.45468 47.9143 3.71468 48.2983 3.05868C48.6903 2.40268 49.2143 1.89068 49.8703 1.52268C50.5343 1.15468 51.2623 0.970679 52.0543 0.970679C52.8463 0.970679 53.5703 1.15468 54.2263 1.52268C54.8903 1.89068 55.4103 2.40268 55.7863 3.05868C56.1703 3.71468 56.3623 4.45468 56.3623 5.27868C56.3623 6.10268 56.1703 6.84668 55.7863 7.51068C55.4023 8.16668 54.8823 8.67868 54.2263 9.04668C53.5703 9.41468 52.8463 9.59868 52.0543 9.59868ZM52.0543 7.72668C52.7263 7.72668 53.2623 7.50268 53.6623 7.05468C54.0703 6.60668 54.2743 6.01468 54.2743 5.27868C54.2743 4.53468 54.0703 3.94268 53.6623 3.50268C53.2623 3.05468 52.7263 2.83068 52.0543 2.83068C51.3743 2.83068 50.8303 3.05068 50.4223 3.49068C50.0223 3.93068 49.8223 4.52668 49.8223 5.27868C49.8223 6.02268 50.0223 6.61868 50.4223 7.06668C50.8303 7.50668 51.3743 7.72668 52.0543 7.72668ZM60.5519 9.59868C59.9359 9.59868 59.3839 9.49868 58.8959 9.29868C58.4079 9.09868 58.0159 8.80268 57.7199 8.41068C57.4319 8.01868 57.2799 7.54668 57.2639 6.99468H59.4479C59.4799 7.30668 59.5879 7.54668 59.7719 7.71468C59.9559 7.87468 60.1959 7.95468 60.4919 7.95468C60.7959 7.95468 61.0359 7.88668 61.2119 7.75068C61.3879 7.60668 61.4759 7.41068 61.4759 7.16268C61.4759 6.95468 61.4039 6.78268 61.2599 6.64668C61.1239 6.51068 60.9519 6.39868 60.7439 6.31068C60.5439 6.22268 60.2559 6.12268 59.8799 6.01068C59.3359 5.84268 58.8919 5.67468 58.5479 5.50668C58.2039 5.33868 57.9079 5.09068 57.6599 4.76268C57.4119 4.43468 57.2879 4.00668 57.2879 3.47868C57.2879 2.69468 57.5719 2.08268 58.1399 1.64268C58.7079 1.19468 59.4479 0.970679 60.3599 0.970679C61.2879 0.970679 62.0359 1.19468 62.6039 1.64268C63.1719 2.08268 63.4759 2.69868 63.5159 3.49068H61.2959C61.2799 3.21868 61.1799 3.00668 60.9959 2.85468C60.8119 2.69468 60.5759 2.61468 60.2879 2.61468C60.0399 2.61468 59.8399 2.68268 59.6879 2.81868C59.5359 2.94668 59.4599 3.13468 59.4599 3.38268C59.4599 3.65468 59.5879 3.86668 59.8439 4.01868C60.0999 4.17068 60.4999 4.33468 61.0439 4.51068C61.5879 4.69468 62.0279 4.87068 62.3639 5.03868C62.7079 5.20668 63.0039 5.45068 63.2519 5.77068C63.4999 6.09068 63.6239 6.50268 63.6239 7.00668C63.6239 7.48668 63.4999 7.92268 63.2519 8.31468C63.0119 8.70668 62.6599 9.01868 62.1959 9.25068C61.7319 9.48268 61.1839 9.59868 60.5519 9.59868ZM73.8497 3.80268C73.8497 4.29068 73.7377 4.73868 73.5137 5.14668C73.2897 5.54668 72.9457 5.87068 72.4817 6.11868C72.0177 6.36668 71.4417 6.49068 70.7537 6.49068H69.4817V9.51468H67.4297V1.09068H70.7537C71.4257 1.09068 71.9937 1.20668 72.4577 1.43868C72.9217 1.67068 73.2697 1.99068 73.5017 2.39868C73.7337 2.80668 73.8497 3.27468 73.8497 3.80268ZM70.5977 4.85868C70.9897 4.85868 71.2817 4.76668 71.4737 4.58268C71.6657 4.39868 71.7617 4.13868 71.7617 3.80268C71.7617 3.46668 71.6657 3.20668 71.4737 3.02268C71.2817 2.83868 70.9897 2.74668 70.5977 2.74668H69.4817V4.85868H70.5977ZM80.162 8.02668H77.018L76.514 9.51468H74.366L77.414 1.09068H79.79L82.838 9.51468H80.666L80.162 8.02668ZM79.634 6.44268L78.59 3.35868L77.558 6.44268H79.634ZM88.0616 9.51468L86.3096 6.33468H85.8176V9.51468H83.7656V1.09068H87.2096C87.8736 1.09068 88.4376 1.20668 88.9016 1.43868C89.3736 1.67068 89.7256 1.99068 89.9576 2.39868C90.1896 2.79868 90.3056 3.24668 90.3056 3.74268C90.3056 4.30268 90.1456 4.80268 89.8256 5.24268C89.5136 5.68268 89.0496 5.99468 88.4336 6.17868L90.3776 9.51468H88.0616ZM85.8176 4.88268H87.0896C87.4656 4.88268 87.7456 4.79068 87.9296 4.60668C88.1216 4.42268 88.2176 4.16268 88.2176 3.82668C88.2176 3.50668 88.1216 3.25468 87.9296 3.07068C87.7456 2.88668 87.4656 2.79468 87.0896 2.79468H85.8176V4.88268ZM96.8377 8.02668H93.6937L93.1897 9.51468H91.0417L94.0897 1.09068H96.4657L99.5137 9.51468H97.3417L96.8377 8.02668ZM96.3097 6.44268L95.2657 3.35868L94.2337 6.44268H96.3097ZM108.228 8.02668H105.084L104.58 9.51468H102.432L105.48 1.09068H107.856L110.904 9.51468H108.732L108.228 8.02668ZM107.7 6.44268L106.656 3.35868L105.624 6.44268H107.7ZM123.915 1.09068V9.51468H121.863V4.46268L119.979 9.51468H118.323L116.427 4.45068V9.51468H114.375V1.09068H116.799L119.163 6.92268L121.503 1.09068H123.915ZM127.443 2.73468V4.43868H130.191V6.02268H127.443V7.87068H130.551V9.51468H125.391V1.09068H130.551V2.73468H127.443ZM133.935 7.93068H136.623V9.51468H131.883V1.09068H133.935V7.93068ZM144.898 1.09068V9.51468H142.846V6.04668H139.654V9.51468H137.602V1.09068H139.654V4.39068H142.846V1.09068H144.898ZM150.363 9.59868C149.571 9.59868 148.843 9.41468 148.179 9.04668C147.523 8.67868 146.999 8.16668 146.607 7.51068C146.223 6.84668 146.031 6.10268 146.031 5.27868C146.031 4.45468 146.223 3.71468 146.607 3.05868C146.999 2.40268 147.523 1.89068 148.179 1.52268C148.843 1.15468 149.571 0.970679 150.363 0.970679C151.155 0.970679 151.879 1.15468 152.535 1.52268C153.199 1.89068 153.719 2.40268 154.095 3.05868C154.479 3.71468 154.671 4.45468 154.671 5.27868C154.671 6.10268 154.479 6.84668 154.095 7.51068C153.711 8.16668 153.191 8.67868 152.535 9.04668C151.879 9.41468 151.155 9.59868 150.363 9.59868ZM150.363 7.72668C151.035 7.72668 151.571 7.50268 151.971 7.05468C152.379 6.60668 152.583 6.01468 152.583 5.27868C152.583 4.53468 152.379 3.94268 151.971 3.50268C151.571 3.05468 151.035 2.83068 150.363 2.83068C149.683 2.83068 149.139 3.05068 148.731 3.49068C148.331 3.93068 148.131 4.52668 148.131 5.27868C148.131 6.02268 148.331 6.61868 148.731 7.06668C149.139 7.50668 149.683 7.72668 150.363 7.72668ZM160.108 9.51468L158.356 6.33468H157.864V9.51468H155.812V1.09068H159.256C159.92 1.09068 160.484 1.20668 160.948 1.43868C161.42 1.67068 161.772 1.99068 162.004 2.39868C162.236 2.79868 162.352 3.24668 162.352 3.74268C162.352 4.30268 162.192 4.80268 161.872 5.24268C161.56 5.68268 161.096 5.99468 160.48 6.17868L162.424 9.51468H160.108ZM157.864 4.88268H159.136C159.512 4.88268 159.792 4.79068 159.976 4.60668C160.168 4.42268 160.264 4.16268 160.264 3.82668C160.264 3.50668 160.168 3.25468 159.976 3.07068C159.792 2.88668 159.512 2.79468 159.136 2.79468H157.864V4.88268ZM168.236 1.09068V9.51468H166.184V1.09068H168.236ZM172.879 1.09068C173.767 1.09068 174.543 1.26668 175.207 1.61868C175.871 1.97068 176.383 2.46668 176.743 3.10668C177.111 3.73868 177.295 4.47068 177.295 5.30268C177.295 6.12668 177.111 6.85868 176.743 7.49868C176.383 8.13868 175.867 8.63468 175.195 8.98668C174.531 9.33868 173.759 9.51468 172.879 9.51468H169.723V1.09068H172.879ZM172.747 7.73868C173.523 7.73868 174.127 7.52668 174.559 7.10268C174.991 6.67868 175.207 6.07868 175.207 5.30268C175.207 4.52668 174.991 3.92268 174.559 3.49068C174.127 3.05868 173.523 2.84268 172.747 2.84268H171.775V7.73868H172.747ZM183.685 8.02668H180.541L180.037 9.51468H177.889L180.937 1.09068H183.313L186.361 9.51468H184.189L183.685 8.02668ZM183.157 6.44268L182.113 3.35868L181.081 6.44268H183.157ZM190.445 1.09068C191.333 1.09068 192.109 1.26668 192.773 1.61868C193.437 1.97068 193.949 2.46668 194.309 3.10668C194.677 3.73868 194.861 4.47068 194.861 5.30268C194.861 6.12668 194.677 6.85868 194.309 7.49868C193.949 8.13868 193.433 8.63468 192.761 8.98668C192.097 9.33868 191.325 9.51468 190.445 9.51468H187.289V1.09068H190.445ZM190.313 7.73868C191.089 7.73868 191.693 7.52668 192.125 7.10268C192.557 6.67868 192.773 6.07868 192.773 5.30268C192.773 4.52668 192.557 3.92268 192.125 3.49068C191.693 3.05868 191.089 2.84268 190.313 2.84268H189.341V7.73868H190.313ZM198.06 2.73468V4.43868H200.808V6.02268H198.06V7.87068H201.168V9.51468H196.008V1.09068H201.168V2.73468H198.06Z" fill="#4984E8"/>
</svg>
