<svg width="201" height="40" viewBox="0 0 201 40" fill="none" xmlns="http://www.w3.org/2000/svg">
<path d="M7.22051 23.6104H16.1805V28.8904H0.380513V0.810365H7.22051V23.6104ZM20.683 17.6904C20.683 15.397 21.1097 13.3837 21.963 11.6504C22.843 9.91703 24.0297 8.5837 25.523 7.65036C27.0163 6.71703 28.683 6.25036 30.523 6.25036C32.0963 6.25036 33.4697 6.57036 34.643 7.21036C35.843 7.85036 36.763 8.69036 37.403 9.73036V6.57036H44.243V28.8904H37.403V25.7304C36.7363 26.7704 35.803 27.6104 34.603 28.2504C33.4297 28.8904 32.0563 29.2104 30.483 29.2104C28.6697 29.2104 27.0163 28.7437 25.523 27.8104C24.0297 26.8504 22.843 25.5037 21.963 23.7704C21.1097 22.0104 20.683 19.9837 20.683 17.6904ZM37.403 17.7304C37.403 16.0237 36.923 14.677 35.963 13.6904C35.0297 12.7037 33.883 12.2104 32.523 12.2104C31.163 12.2104 30.003 12.7037 29.043 13.6904C28.1097 14.6504 27.643 15.9837 27.643 17.6904C27.643 19.397 28.1097 20.757 29.043 21.7704C30.003 22.757 31.163 23.2504 32.523 23.2504C33.883 23.2504 35.0297 22.757 35.963 21.7704C36.923 20.7837 37.403 19.437 37.403 17.7304ZM60.8715 29.2104C58.9248 29.2104 57.1915 28.877 55.6715 28.2104C54.1515 27.5437 52.9515 26.637 52.0715 25.4904C51.1915 24.317 50.6981 23.0104 50.5915 21.5704H57.3515C57.4315 22.3437 57.7915 22.9704 58.4315 23.4504C59.0715 23.9304 59.8581 24.1704 60.7915 24.1704C61.6448 24.1704 62.2981 24.0104 62.7515 23.6904C63.2315 23.3437 63.4715 22.9037 63.4715 22.3704C63.4715 21.7304 63.1381 21.2637 62.4715 20.9704C61.8048 20.6504 60.7248 20.3037 59.2315 19.9304C57.6315 19.557 56.2981 19.1704 55.2315 18.7704C54.1648 18.3437 53.2448 17.6904 52.4715 16.8104C51.6981 15.9037 51.3115 14.6904 51.3115 13.1704C51.3115 11.8904 51.6581 10.7304 52.3515 9.69036C53.0715 8.6237 54.1115 7.7837 55.4715 7.17036C56.8581 6.55703 58.4981 6.25036 60.3915 6.25036C63.1915 6.25036 65.3915 6.9437 66.9915 8.33037C68.6181 9.71703 69.5515 11.557 69.7915 13.8504H63.4715C63.3648 13.077 63.0181 12.4637 62.4315 12.0104C61.8715 11.557 61.1248 11.3304 60.1915 11.3304C59.3915 11.3304 58.7781 11.4904 58.3515 11.8104C57.9248 12.1037 57.7115 12.517 57.7115 13.0504C57.7115 13.6904 58.0448 14.1704 58.7115 14.4904C59.4048 14.8104 60.4715 15.1304 61.9115 15.4504C63.5648 15.877 64.9115 16.3037 65.9515 16.7304C66.9915 17.1304 67.8981 17.797 68.6715 18.7304C69.4715 19.637 69.8848 20.8637 69.9115 22.4104C69.9115 23.717 69.5381 24.8904 68.7915 25.9304C68.0715 26.9437 67.0181 27.7437 65.6315 28.3304C64.2715 28.917 62.6848 29.2104 60.8715 29.2104ZM89.1361 23.0904V28.8904H85.6561C83.1761 28.8904 81.2428 28.2904 79.8561 27.0904C78.4695 25.8637 77.7761 23.877 77.7761 21.1304V12.2504H75.0561V6.57036H77.7761V1.13037H84.6161V6.57036H89.0961V12.2504H84.6161V21.2104C84.6161 21.877 84.7761 22.357 85.0961 22.6504C85.4161 22.9437 85.9495 23.0904 86.6961 23.0904H89.1361ZM116.063 29.1704C114.223 29.1704 112.569 28.8504 111.103 28.2104C109.663 27.5437 108.529 26.637 107.703 25.4904C106.876 24.317 106.449 22.9704 106.423 21.4504H110.303C110.436 22.757 110.969 23.8637 111.903 24.7704C112.863 25.6504 114.249 26.0904 116.063 26.0904C117.796 26.0904 119.156 25.6637 120.143 24.8104C121.156 23.9304 121.663 22.8104 121.663 21.4504C121.663 20.3837 121.369 19.517 120.783 18.8504C120.196 18.1837 119.463 17.677 118.583 17.3304C117.703 16.9837 116.516 16.6104 115.023 16.2104C113.183 15.7304 111.703 15.2504 110.583 14.7704C109.489 14.2904 108.543 13.5437 107.743 12.5304C106.969 11.4904 106.583 10.1037 106.583 8.37037C106.583 6.85036 106.969 5.5037 107.743 4.33036C108.516 3.15703 109.596 2.25036 110.983 1.61036C112.396 0.970364 114.009 0.650364 115.823 0.650364C118.436 0.650364 120.569 1.3037 122.223 2.61037C123.903 3.91703 124.849 5.65036 125.063 7.81037H121.063C120.929 6.7437 120.369 5.81036 119.383 5.01037C118.396 4.1837 117.089 3.77036 115.463 3.77036C113.943 3.77036 112.703 4.17036 111.743 4.97036C110.783 5.7437 110.303 6.83703 110.303 8.25036C110.303 9.2637 110.583 10.0904 111.143 10.7304C111.729 11.3704 112.436 11.8637 113.263 12.2104C114.116 12.5304 115.303 12.9037 116.823 13.3304C118.663 13.837 120.143 14.3437 121.263 14.8504C122.383 15.3304 123.343 16.0904 124.143 17.1304C124.943 18.1437 125.343 19.5304 125.343 21.2904C125.343 22.6504 124.983 23.9304 124.263 25.1304C123.543 26.3304 122.476 27.3037 121.063 28.0504C119.649 28.797 117.983 29.1704 116.063 29.1704ZM137.739 9.97036V22.8904C137.739 23.957 137.966 24.717 138.419 25.1704C138.873 25.597 139.659 25.8104 140.779 25.8104H143.459V28.8904H140.179C138.153 28.8904 136.633 28.4237 135.619 27.4904C134.606 26.557 134.099 25.0237 134.099 22.8904V9.97036H131.259V6.97036H134.099V1.45036H137.739V6.97036H143.459V9.97036H137.739ZM170.47 17.0904C170.47 17.7837 170.43 18.517 170.35 19.2904H152.83C152.963 21.4504 153.696 23.1437 155.03 24.3704C156.39 25.5704 158.03 26.1704 159.95 26.1704C161.523 26.1704 162.83 25.8104 163.87 25.0904C164.936 24.3437 165.683 23.357 166.11 22.1304H170.03C169.443 24.237 168.27 25.957 166.51 27.2904C164.75 28.597 162.563 29.2504 159.95 29.2504C157.87 29.2504 156.003 28.7837 154.35 27.8504C152.723 26.917 151.443 25.597 150.51 23.8904C149.576 22.157 149.11 20.157 149.11 17.8904C149.11 15.6237 149.563 13.637 150.47 11.9304C151.376 10.2237 152.643 8.91703 154.27 8.01037C155.923 7.07703 157.816 6.61036 159.95 6.61036C162.03 6.61036 163.87 7.0637 165.47 7.97037C167.07 8.87703 168.296 10.1304 169.15 11.7304C170.03 13.3037 170.47 15.0904 170.47 17.0904ZM166.71 16.3304C166.71 14.9437 166.403 13.757 165.79 12.7704C165.176 11.757 164.336 10.997 163.27 10.4904C162.23 9.95703 161.07 9.69036 159.79 9.69036C157.95 9.69036 156.376 10.277 155.07 11.4504C153.79 12.6237 153.056 14.2504 152.87 16.3304H166.71ZM181.514 11.0104C182.234 9.75703 183.301 8.71703 184.714 7.89036C186.154 7.03703 187.821 6.61036 189.714 6.61036C191.661 6.61036 193.421 7.07703 194.994 8.01037C196.594 8.9437 197.848 10.2637 198.754 11.9704C199.661 13.6504 200.114 15.6104 200.114 17.8504C200.114 20.0637 199.661 22.037 198.754 23.7704C197.848 25.5037 196.594 26.8504 194.994 27.8104C193.421 28.7704 191.661 29.2504 189.714 29.2504C187.848 29.2504 186.194 28.837 184.754 28.0104C183.341 27.157 182.261 26.1037 181.514 24.8504V39.2904H177.874V6.97036H181.514V11.0104ZM196.394 17.8504C196.394 16.197 196.061 14.757 195.394 13.5304C194.728 12.3037 193.821 11.3704 192.674 10.7304C191.554 10.0904 190.314 9.77036 188.954 9.77036C187.621 9.77036 186.381 10.1037 185.234 10.7704C184.114 11.4104 183.208 12.357 182.514 13.6104C181.848 14.837 181.514 16.2637 181.514 17.8904C181.514 19.5437 181.848 20.997 182.514 22.2504C183.208 23.477 184.114 24.4237 185.234 25.0904C186.381 25.7304 187.621 26.0504 188.954 26.0504C190.314 26.0504 191.554 25.7304 192.674 25.0904C193.821 24.4237 194.728 23.477 195.394 22.2504C196.061 20.997 196.394 19.5304 196.394 17.8504Z" fill="#4984E8"/>
</svg>
